<svg xmlns="http://www.w3.org/2000/svg" viewBox="0 0 300 200" width="300" height="200">
  <rect width="300" height="200" rx="8" fill="#f0f4f4"/>
  <rect x="0" y="0" width="300" height="36" rx="8" fill="#264653"/>
  <rect x="0" y="20" width="300" height="16" fill="#264653"/>
  <text x="150" y="24" text-anchor="middle" font-family="Arial,sans-serif" font-size="14" font-weight="700" fill="#fff">AIH Types</text>
  <!-- Type 1 -->
  <rect x="15" y="48" width="270" height="32" rx="6" fill="#2a9d8f" opacity="0.15"/>
  <rect x="15" y="48" width="4" height="32" rx="2" fill="#2a9d8f"/>
  <text x="28" y="68" font-family="Arial,sans-serif" font-size="12" font-weight="700" fill="#264653">Type 1 (Classic)</text>
  <text x="200" y="68" font-family="Arial,sans-serif" font-size="10" fill="#264653">ANA + ASMA &gt;1:320</text>
  <!-- Type 2 -->
  <rect x="15" y="88" width="270" height="32" rx="6" fill="#e9c46a" opacity="0.15"/>
  <rect x="15" y="88" width="4" height="32" rx="2" fill="#e9c46a"/>
  <text x="28" y="108" font-family="Arial,sans-serif" font-size="12" font-weight="700" fill="#264653">Type 2</text>
  <text x="200" y="108" font-family="Arial,sans-serif" font-size="10" fill="#264653">Anti-LKM antibodies</text>
  <!-- Type 3 -->
  <rect x="15" y="128" width="270" height="32" rx="6" fill="#f4a261" opacity="0.15"/>
  <rect x="15" y="128" width="4" height="32" rx="2" fill="#f4a261"/>
  <text x="28" y="148" font-family="Arial,sans-serif" font-size="12" font-weight="700" fill="#264653">Type 3</text>
  <text x="200" y="148" font-family="Arial,sans-serif" font-size="10" fill="#264653">Anti-SLA antibodies</text>
  <!-- Key stat -->
  <rect x="15" y="170" width="270" height="22" rx="4" fill="#e76f51" opacity="0.12"/>
  <text x="150" y="184" text-anchor="middle" font-family="Arial,sans-serif" font-size="10" fill="#264653">40% have cirrhosis at presentation</text>
</svg>